<?xml version="1.0" encoding="UTF-8"?>
<svg xmlns="http://www.w3.org/2000/svg" xmlns:xlink="http://www.w3.org/1999/xlink" xmlns:svgjs="http://svgjs.com/svgjs" version="1.1" width="512" height="512" x="0" y="0" viewBox="0 0 24 24" style="enable-background:new 0 0 512 512" xml:space="preserve">
  <g>
    <path xmlns="http://www.w3.org/2000/svg" d="m6.251 13c-.242 0-.48-.117-.625-.334l-1.5-2.25c-.168-.252-.168-.58 0-.832l1.5-2.25c.229-.345.695-.438 1.04-.208s.438.695.208 1.04l-1.223 1.834 1.223 1.834c.229.345.137.81-.208 1.04-.128.085-.272.126-.415.126z" fill="#ffffff" data-original="#000000" style=""/>
    <path xmlns="http://www.w3.org/2000/svg" d="m17.749 13c-.143 0-.287-.041-.415-.126-.345-.23-.438-.695-.208-1.04l1.223-1.834-1.223-1.834c-.229-.345-.137-.81.208-1.04.346-.23.811-.137 1.04.208l1.5 2.25c.168.252.168.58 0 .832l-1.5 2.25c-.145.217-.383.334-.625.334z" fill="#ffffff" data-original="#000000" style=""/>
    <path xmlns="http://www.w3.org/2000/svg" d="m7 20.25c-.689 0-1.25-.561-1.25-1.25s.561-1.25 1.25-1.25 1.25.561 1.25 1.25-.561 1.25-1.25 1.25zm0-1.5c-.138 0-.25.112-.25.25 0 .275.5.275.5 0 0-.138-.112-.25-.25-.25z" fill="#ffffff" data-original="#000000" style=""/>
    <path xmlns="http://www.w3.org/2000/svg" d="m12 20.25c-.689 0-1.25-.561-1.25-1.25s.561-1.25 1.25-1.25 1.25.561 1.25 1.25-.561 1.25-1.25 1.25zm0-1.5c-.138 0-.25.112-.25.25 0 .275.5.275.5 0 0-.138-.112-.25-.25-.25z" fill="#ffffff" data-original="#000000" style=""/>
    <path xmlns="http://www.w3.org/2000/svg" d="m17 20.25c-.689 0-1.25-.561-1.25-1.25s.561-1.25 1.25-1.25 1.25.561 1.25 1.25-.561 1.25-1.25 1.25zm0-1.5c-.138 0-.25.112-.25.25 0 .275.5.275.5 0 0-.138-.112-.25-.25-.25z" fill="#ffffff" data-original="#000000" style=""/>
    <path xmlns="http://www.w3.org/2000/svg" d="m21.25 24h-18.5c-1.517 0-2.75-1.233-2.75-2.75v-18.5c0-1.517 1.233-2.75 2.75-2.75h18.5c1.517 0 2.75 1.233 2.75 2.75v18.5c0 1.517-1.233 2.75-2.75 2.75zm-18.5-22.5c-.689 0-1.25.561-1.25 1.25v18.5c0 .689.561 1.25 1.25 1.25h18.5c.689 0 1.25-.561 1.25-1.25v-18.5c0-.689-.561-1.25-1.25-1.25z" fill="#ffffff" data-original="#000000" style=""/>
  </g>
</svg>
